Coordinates
version=1
nRows=19
nColumns=36
inDegrees=yes

Units are S.I. units (second, meters, Newtons, ...)
If the header above contains a line with 'inDegrees', this indicates whether rotational values are in degrees (yes) or radians (no).

endheader
time	pelvis_tilt	pelvis_list	pelvis_rotation	pelvis_tx	pelvis_ty	pelvis_tz	hip_flexion_r	hip_adduction_r	hip_rotation_r	knee_angle_r	knee_angle_r_beta	ankle_angle_r	subtalar_angle_r	mtp_angle_r	hip_flexion_l	hip_adduction_l	hip_rotation_l	knee_angle_l	knee_angle_l_beta	ankle_angle_l	subtalar_angle_l	mtp_angle_l	lumbar_extension	lumbar_bending	lumbar_rotation	arm_flex_r	arm_add_r	arm_rot_r	elbow_flex_r	pro_sup_r	arm_flex_l	arm_add_l	arm_rot_l	elbow_flex_l	pro_sup_l
      5.00000000	     -1.30156967	     -1.28271091	     -1.42987260	      0.33242901	      0.96360085	     -0.10115416	      4.73166318	     -2.49147449	     -2.82677031	      3.79034002	      0.06615391	      1.14675277	    -16.68762046	     -7.49999987	      2.06923187	     -5.86515824	      1.05498453	      1.81024128	      0.03159467	      4.52681010	    -10.19651466	     -7.49999987	    -12.47077699	      0.50766346	     -2.02937970	     17.43740662	     -3.87271944	     17.09349417	    106.75121696	     95.99484766	     24.93111103	     -5.15368130	     26.87207854	    102.48057952	     62.70816222
      5.00416670	     -1.32938819	     -1.27788779	     -1.42422864	      0.33149449	      0.96272450	     -0.10112289	      4.78496508	     -2.47740911	     -2.74415123	      3.79216296	      0.06618573	      1.08977761	    -16.87082292	     -7.49999987	      2.13070536	     -5.86766677	      1.13345332	      1.83840163	      0.03208616	      4.50575097	    -10.41665322	     -7.49999987	    -12.44495338	      0.52931296	     -2.01404058	     17.67134382	     -3.93606257	     17.14849219	    106.72609783	     94.94020800	     25.12059811	     -5.08379935	     27.01973700	    102.40637484	     62.68070440
      5.00833330	     -1.24940925	     -1.24883109	     -1.41511401	      0.33176354	      0.96468306	     -0.09985186	      4.70703596	     -2.48278425	     -2.80190937	      3.76744373	      0.06575430	      1.28972112	    -16.59045803	     -7.49999987	      2.05550769	     -5.86357278	      1.04652771	      1.84613833	      0.03222119	      4.52030387	    -10.27526879	     -7.49999987	    -12.47935007	      0.44686783	     -2.02823748	     17.52485572	     -3.70468590	     17.01972584	    106.42434438	     96.98985576	     25.21234483	     -5.17374865	     27.01671745	    102.20929077	     62.77102328
      5.01250000	     -1.27731511	     -1.22042022	     -1.41529518	      0.33076723	      0.96337985	     -0.10045377	      4.77752639	     -2.49329911	     -2.63470338	      3.75445566	      0.06552761	      1.25712590	    -16.72908035	     -7.49999987	      2.11602438	     -5.84074738	      1.14861761	      1.87362339	      0.03270090	      4.54214143	    -10.40318309	     -7.49999987	    -12.36262569	      0.36695273	     -2.13367154	     17.39829949	     -3.50797195	     17.07896040	    106.17672310	     94.47210236	     25.25649898	     -5.27049825	     27.00342693	    102.23195894	     62.55797735
      5.01666670	     -1.25712281	     -1.20183056	     -1.40612899	      0.33063666	      0.96183030	     -0.10037659	      4.77254033	     -2.48847642	     -2.58310673	      3.73498078	      0.06518771	      1.45989411	    -16.47777968	     -7.49999987	      2.13024142	     -5.83549225	      1.17314763	      1.91344065	      0.03339584	      4.62877332	    -10.33314829	     -7.49999987	    -12.30635074	      0.31845686	     -2.16267023	     17.31359068	     -3.26038829	     16.83222780	    106.01591657	     96.83812749	     25.35232101	     -5.32973056	     27.04615300	    102.21323839	     62.75474475
      5.02083330	     -1.29570106	     -1.17458769	     -1.42512256	      0.33012777	      0.95984110	     -0.09933119	      4.85196792	     -2.47924907	     -2.44873786	      3.72344906	      0.06498645	      1.62886836	    -16.42686655	     -7.49999987	      2.22175015	     -5.82844112	      1.20813524	      1.95900751	      0.03419113	      4.74114334	    -10.29086294	     -7.49999987	    -12.17320756	      0.20777720	     -2.14423860	     17.28915038	     -3.06087691	     16.70572041	    105.94180019	     96.69317695	     25.49388389	     -5.38252599	     27.10818471	    102.34697915	     62.70872642
      5.02500000	     -1.23035257	     -1.15652369	     -1.42347388	      0.33088930	      0.96196319	     -0.10035531	      4.79210334	     -2.50053201	     -2.44372883	      3.71975069	      0.06492190	      1.78627651	    -16.18872508	     -7.49999987	      2.17277147	     -5.80654463	      1.12533317	      1.98203060	      0.03459296	      4.90614029	    -10.03551370	     -7.49999987	    -12.14684976	      0.15922755	     -2.19674124	     17.36028879	     -2.90677478	     16.82708804	    105.74584526	     92.20179056	     25.57732175	     -5.42379806	     27.12633362	    102.34614765	     62.39117554
      5.02916670	     -1.31587583	     -1.12054453	     -1.43198831	      0.33075414	      0.96187326	     -0.10157007	      4.91822148	     -2.55430548	     -2.28930131	      3.76187506	      0.06565711	      1.65322139	    -16.53158099	     -7.49999987	      2.30804239	     -5.74933411	      1.22188732	      2.03639885	      0.03554186	      4.84103534	    -10.29706688	     -7.49999987	    -11.96241431	      0.12474079	     -2.09585767	     17.22182724	     -2.85727954	     16.35855201	    105.74327826	     96.40322192	     25.62986049	     -5.36754629	     27.30673147	    102.26271544	     62.72957659
      5.03333330	     -1.34497069	     -1.07466428	     -1.40261364	      0.32964205	      0.96300461	     -0.10148272	      4.97425815	     -2.62663768	     -2.22291782	      3.77069454	      0.06581103	      1.71497635	    -16.45701672	     -7.49999987	      2.41628290	     -5.67378878	      1.26873870	      2.12326906	      0.03705804	      4.85765221	    -10.43669375	     -7.49999987	    -11.96413348	      0.10576228	     -2.03898541	     17.50165167	     -3.03370569	     16.44843503	    105.71110476	     96.27173068	     25.77929708	     -5.28364741	     27.39053808	    102.11053197	     62.83687814
      5.03750000	     -1.30731757	     -1.03975312	     -1.39819404	      0.32966681	      0.96331673	     -0.10116046	      4.94488767	     -2.68700255	     -2.18496202	      3.76280261	      0.06567329	      1.64077238	    -16.44633603	     -7.49999987	      2.39029770	     -5.62231962	      1.26506451	      2.12120482	      0.03702201	      4.79365608	    -10.44859065	     -7.49999987	    -11.94724742	      0.08213475	     -2.02131551	     17.52384697	     -2.99760534	     16.39492047	    105.52852992	     96.43525704	     25.73443996	     -5.27119835	     27.50886642	    101.94023055	     62.76163927
      5.04166670	     -1.27299438	     -1.03040821	     -1.36980862	      0.32975732	      0.96405059	     -0.10157997	      4.88440797	     -2.70872448	     -2.12873217	      3.72054204	      0.06493571	      1.47184543	    -16.54382620	     -7.49999987	      2.37946762	     -5.58978899	      1.29371025	      2.12436178	      0.03707711	      4.87828965	    -10.31098759	     -7.49999987	    -11.89390668	      0.10530437	     -2.08372460	     17.53784777	     -2.94659503	     16.57186142	    105.16256661	     92.87082088	     25.71262554	     -5.28943430	     27.58361978	    101.76008477	     62.53462102
      5.04583330	     -1.29609858	     -0.99647225	     -1.34143920	      0.32904126	      0.96853978	     -0.10251066	      4.92678436	     -2.78454961	     -2.11582811	      3.70796385	      0.06471618	      1.45933763	    -16.52096445	     -7.49999987	      2.44633642	     -5.49306447	      1.28417698	      2.10024508	      0.03665619	      4.87971424	    -10.32381750	     -7.49999987	    -12.00436285	      0.18060315	     -2.09023991	     17.54104697	     -2.99105605	     16.55820486	    105.12392124	     92.88741570	     25.68248954	     -5.27701073	     27.59871681	    101.73222209	     62.53648491
      5.05000000	     -1.20913802	     -0.94972388	     -1.28336706	      0.32790528	      0.96483740	     -0.10167185	      4.84504143	     -2.85823922	     -2.09468745	      3.65370329	      0.06376915	      1.38540734	    -16.46084730	     -7.49999987	      2.43350179	     -5.39705014	      1.52898915	      2.16468624	      0.03778090	      4.73648711	    -10.75566027	     -7.49999987	    -12.14507873	      0.18295604	     -2.09046196	     18.03975798	     -3.28780194	     16.71114250	    105.10491442	     92.40672713	     25.86892342	     -5.14245112	     27.69044607	    101.66190621	     62.56445437
      5.05416670	     -1.19863873	     -0.92010144	     -1.24430752	      0.32816532	      0.96609355	     -0.10084050	      4.81974123	     -2.88576867	     -2.17872232	      3.58813625	      0.06262479	      1.42262914	    -16.14964320	     -7.49999987	      2.46921066	     -5.35069676	      1.57559243	      2.19902945	      0.03838030	      4.71814940	    -10.66897888	     -7.49999987	    -12.09043348	      0.11225072	     -2.05230643	     18.00315505	     -3.17068756	     16.36345961	    104.77911011	     95.99908004	     25.92347152	     -5.13028427	     27.82990308	    101.30777198	     63.00257266
      5.05833330	     -1.12514208	     -0.90549909	     -1.26888630	      0.32878280	      0.96548810	     -0.10064192	      4.71466355	     -2.87945647	     -2.05373961	      3.51362130	      0.06132426	      1.29040855	    -16.21473610	     -7.49999987	      2.39240343	     -5.33410134	      1.49870175	      2.21284515	      0.03862143	      4.77258176	    -10.52998092	     -7.49999987	    -12.07069940	      0.05885541	     -2.07602299	     18.03176239	     -3.06486665	     16.47085993	    104.56224663	     93.54596127	     25.96934314	     -5.21672992	     27.88701076	    101.33113869	     62.85559165
      5.06250000	     -1.10518916	     -0.89835048	     -1.25876129	      0.32874489	      0.96610576	     -0.10181129	      4.66913843	     -2.87889878	     -2.03992021	      3.49274340	      0.06095987	      1.21157537	    -16.20937860	     -7.49999987	      2.40820134	     -5.31679294	      1.40772574	      2.27299910	      0.03967132	      4.77178286	    -10.41177597	     -7.49999987	    -12.08553829	      0.06201615	     -2.04264890	     17.94997815	     -2.99116495	     16.13914416	    104.51612144	     96.05548170	     25.97214085	     -5.18470243	     27.84138752	    101.33675963	     63.05094407
      5.06666670	     -1.04968639	     -0.87583878	     -1.29644376	      0.32849269	      0.96141840	     -0.10167532	      4.60513474	     -2.89328009	     -1.96578910	      3.45572860	      0.06031384	      1.20110173	    -16.31640067	     -7.49999987	      2.35667368	     -5.27526568	      1.26848847	      2.30873120	      0.04029496	      5.04237240	    -10.23467418	     -7.49999987	    -11.99545958	      0.00652131	     -2.05966036	     18.07975862	     -2.96282223	     16.15454689	    104.52408646	     94.60232113	     26.09853830	     -5.26597378	     27.82041956	    101.51407181	     63.00199525
      5.07083330	     -1.10844956	     -0.87504491	     -1.25854864	      0.32808195	      0.96069291	     -0.10220874	      4.68264586	     -2.90544520	     -1.93659423	      3.49629925	      0.06102193	      1.16667036	    -16.53176795	     -7.49999987	      2.46438837	     -5.26926714	      1.42849633	      2.37591267	      0.04146750	      4.99386988	    -10.53769211	     -7.49999987	    -11.84529265	      0.02937520	     -2.03890241	     18.08710137	     -2.97122244	     15.90133189	    104.69547418	     95.70457951	     26.24797371	     -5.24022450	     27.84089909	    101.65086574	     63.01240044
      5.07500000	     -1.14106141	     -0.85980518	     -1.23176057	      0.32771795	      0.96175527	     -0.10219599	      4.70829656	     -2.93587573	     -2.01295755	      3.48194689	      0.06077144	      1.23606778	    -16.54109187	     -7.49999987	      2.54605351	     -5.24107471	      1.50883010	      2.42233409	      0.04227771	      5.08584658	    -10.51786140	     -7.49999987	    -11.69373429	      0.03377349	     -2.05078466	     18.01368358	     -2.91554476	     15.75213598	    104.66022291	     96.20937733	     26.28499459	     -5.25947195	     27.73830087	    101.67433698	     63.00040071
